<svg width="462" height="282" viewBox="0 0 462 282" fill="none" xmlns="http://www.w3.org/2000/svg">
<path d="M341.675 257.478C321.543 290.174 271.215 290.174 251.083 257.478L137.843 73.5653C117.712 40.8696 142.876 2.1866e-05 183.139 1.85655e-05L409.619 0C449.882 -3.30053e-06 475.046 40.8695 454.915 73.5652L341.675 257.478Z" fill="#636363"/>
<path d="M210.917 257.478C190.785 290.174 140.457 290.174 120.325 257.478L7.08534 73.5653C-13.0462 40.8697 12.1182 9.31725e-05 52.3812 8.9872e-05L278.861 7.13065e-05C319.124 6.8006e-05 344.288 40.8696 324.157 73.5653L210.917 257.478Z" fill="#1DCE90"/>
</svg>
