<svg width="110" height="110" viewBox="0 0 110 110" fill="none" xmlns="http://www.w3.org/2000/svg">
<path d="M90.2662 61.7565C91.345 64.1795 90.3735 66.9987 88.0459 68.035L63.6691 80.5716C61.9025 81.36 59.8697 81.728 57.5556 81.7507C54.273 81.7828 50.5077 81.1252 46.4428 79.9464C44.0197 79.2436 41.6378 78.3985 39.3957 77.4909C38.9246 77.3003 38.4798 77.1148 38.064 76.9369L36.9868 76.4639L36.8633 76.408L24.7236 79.8747C24.1395 80.0415 23.5307 79.7031 23.3639 79.119C23.1971 78.5349 23.5353 77.9261 24.1196 77.7593L37.0524 74.0661L37.8423 74.4363L38.1655 74.5811C38.7702 74.8499 39.4596 75.1435 40.2211 75.4516C42.3979 76.3327 44.7106 77.1533 47.0555 77.8334C50.9319 78.9576 54.4985 79.5805 57.534 79.5506C59.5682 79.5307 61.3104 79.2154 62.7187 78.5884L87.0954 66.0519C88.3365 65.4975 88.8543 63.9944 88.2563 62.6512C87.6585 61.3084 86.1956 60.6883 85.0099 61.2161L69.484 65.9519C68.9028 66.1289 68.2881 65.8012 68.1112 65.22C67.9344 64.6388 68.262 64.0241 68.8431 63.8473L84.2421 59.1589C86.4428 58.1698 89.1873 59.3335 90.2662 61.7565ZM61.4827 58.6737C63.9387 59.3887 65.4577 61.9832 64.921 64.5131C64.4265 66.8472 62.3183 68.3811 59.9867 68.0811L44.4573 65.8896C43.8558 65.8048 43.4369 65.2483 43.5219 64.6468C43.6068 64.0452 44.1632 63.6264 44.7648 63.7112L60.2808 65.9009C61.4508 66.0513 62.5094 65.2809 62.7689 64.0567C63.0685 62.6445 62.2091 61.1765 60.8677 60.786L59.2754 60.3282L57.7206 59.8932C50.3898 57.8721 44.5343 56.6928 43.0073 57.227L42.5182 57.407L41.5667 57.7855C40.3928 58.2662 38.7562 58.9754 36.6791 59.9003L30.8069 62.5508L20.7977 67.1194C20.2428 67.3665 19.5925 67.1169 19.3454 66.562C19.0983 66.0069 19.3479 65.3567 19.9029 65.1096L32.4841 59.3728L35.8304 57.8697C39.0114 56.4538 41.1687 55.5396 42.2807 55.1505C44.7095 54.3007 51.8605 55.8711 61.4827 58.6737Z" fill="#A2051A"/>
<path d="M61.3677 28.875C63.12 28.875 64.8275 29.43 66.245 30.4602C66.7364 30.8173 66.8453 31.5052 66.4881 31.9967C66.131 32.4881 65.4431 32.597 64.9517 32.2398C63.91 31.4828 62.6554 31.075 61.3677 31.075H60.0632C57.7518 31.075 55.8389 33.0096 55.7058 35.4751L58.7234 35.475C59.3308 35.475 59.8233 35.9675 59.8233 36.575C59.8233 37.1825 59.3308 37.675 58.7234 37.675H55.697V40.975H58.7234C59.2841 40.975 59.7469 41.3946 59.8148 41.9369L59.8233 42.075C59.8233 42.6825 59.3308 43.175 58.7234 43.175H55.697L55.6983 43.45C55.6983 45.9557 57.5332 47.9809 59.8169 48.1177L60.0632 48.125H61.3677C62.6554 48.125 63.91 47.7172 64.9517 46.9602C65.4431 46.603 66.131 46.7119 66.4881 47.2033C66.8453 47.6948 66.7364 48.3827 66.245 48.7398C64.8275 49.7701 63.12 50.325 61.3677 50.325H60.0632C56.4235 50.325 53.4984 47.2337 53.4984 43.45V43.175H50.4734C49.9126 43.175 49.4498 42.7553 49.3819 42.2129L49.3734 42.075C49.3734 41.4675 49.8659 40.975 50.4734 40.975H53.4984V37.675H50.4734C49.9126 37.675 49.4498 37.2553 49.3819 36.7129L49.3734 36.575C49.3734 35.9675 49.8659 35.475 50.4734 35.475L53.5036 35.4749C53.6412 31.8175 56.5122 28.875 60.0632 28.875H61.3677Z" fill="#232326"/>
</svg>
