<svg width="110" height="110" viewBox="0 0 110 110" fill="none" xmlns="http://www.w3.org/2000/svg">
<path d="M53.9007 57.75V86.5512C53.9007 87.5797 53.0669 88.4135 52.0382 88.4135C51.2245 88.4135 50.5129 87.8866 50.2667 87.1257L50.2183 86.9461C50.0895 86.3524 49.5037 85.9755 48.9101 86.1043C48.3164 86.2331 47.9395 86.8189 48.0683 87.4126C48.4737 89.2807 50.1267 90.6135 52.0382 90.6135C54.2818 90.6135 56.1007 88.7946 56.1007 86.5512V57.75C56.1007 57.1424 55.6082 56.65 55.0007 56.65C54.3931 56.65 53.9007 57.1424 53.9007 57.75Z" fill="#232326"/>
<path d="M54.8233 20.625C55.9012 20.625 56.775 21.4988 56.775 22.5767V24.5282H52.8716V22.5767C52.8716 21.4988 53.7454 20.625 54.8233 20.625ZM52.8029 25.382H56.8451C72.1054 26.3634 83.2454 38.3138 83.2454 53.8024C83.2454 54.4099 82.753 54.9024 82.1454 54.9024H27.5003C26.8928 54.9024 26.4003 54.4099 26.4003 53.8024C26.4003 38.2804 37.5254 26.334 52.8029 25.382ZM52.9057 27.5798L52.4226 27.6145C38.9371 28.6979 29.1217 39.0544 28.6203 52.7024H81.0252C80.5156 38.9122 70.4423 28.461 56.7744 27.5798H52.9057Z" fill="#A2051A"/>
</svg>
