<svg width="110" height="110" viewBox="0 0 110 110" fill="none" xmlns="http://www.w3.org/2000/svg">
<path fill-rule="evenodd" clip-rule="evenodd" d="M24.75 48.1144C25.3575 48.1144 25.85 48.6069 25.85 49.2144V80.2954C25.85 82.8172 27.9239 84.8859 30.5143 84.8859H79.4874C82.0758 84.8859 84.15 82.8175 84.15 80.2954V49.2144C84.15 48.6069 84.6425 48.1144 85.25 48.1144C85.8575 48.1144 86.35 48.6069 86.35 49.2144V80.2954C86.35 84.0584 83.2648 87.0859 79.4874 87.0859H30.5143C26.7354 87.0859 23.65 84.0585 23.65 80.2954V49.2144C23.65 48.6069 24.1425 48.1144 24.75 48.1144Z" fill="#A2051A"/>
<path fill-rule="evenodd" clip-rule="evenodd" d="M55 24.4747C43.4573 24.4747 34.1 33.832 34.1 45.3747C34.1 56.9176 43.4573 66.2747 55 66.2747C66.5427 66.2747 75.9 56.9176 75.9 45.3747C75.9 33.832 66.5427 24.4747 55 24.4747ZM31.9 45.3747C31.9 32.6169 42.2422 22.2747 55 22.2747C67.7578 22.2747 78.1 32.6169 78.1 45.3747C78.1 58.1325 67.7578 68.4747 55 68.4747C42.2422 68.4747 31.9 58.1325 31.9 45.3747Z" fill="#A2051A"/>
<path fill-rule="evenodd" clip-rule="evenodd" d="M55.6941 34.9625C52.9612 34.9625 50.6435 37.322 50.6435 40.3623V49.0286C50.6435 52.0689 52.9612 54.4285 55.6941 54.4285H57.1624C58.6408 54.4285 60.0813 53.9603 61.2773 53.0911C61.7687 52.734 62.4567 52.8427 62.8137 53.3342C63.171 53.8256 63.0621 54.5135 62.5706 54.8707C60.9987 56.0131 59.1055 56.6285 57.1624 56.6285H55.6941C51.6332 56.6285 48.4435 53.1679 48.4435 49.0286V40.3623C48.4435 36.223 51.6332 32.7625 55.6941 32.7625H57.1624C59.1055 32.7625 60.9987 33.3778 62.5706 34.5202C63.0621 34.8774 63.171 35.5653 62.8137 36.0567C62.4567 36.5482 61.7687 36.6571 61.2773 36.2998C60.0813 35.4307 58.6408 34.9625 57.1624 34.9625H55.6941Z" fill="#232326"/>
<path fill-rule="evenodd" clip-rule="evenodd" d="M44.5745 41.2907C44.5745 40.6832 45.0668 40.1907 45.6745 40.1907H54.9598C55.5673 40.1907 56.0598 40.6832 56.0598 41.2907C56.0598 41.8981 55.5673 42.3907 54.9598 42.3907H45.6745C45.0668 42.3907 44.5745 41.8981 44.5745 41.2907ZM44.5745 47.4809C44.5745 46.8733 45.0668 46.3809 45.6745 46.3809H54.9598C55.5673 46.3809 56.0598 46.8733 56.0598 47.4809C56.0598 48.0884 55.5673 48.5809 54.9598 48.5809H45.6745C45.0668 48.5809 44.5745 48.0884 44.5745 47.4809Z" fill="#232326"/>
</svg>
