<svg width="110" height="110" viewBox="0 0 110 110" fill="none" xmlns="http://www.w3.org/2000/svg">
<path d="M27.5 42.625C25.9812 42.625 24.75 43.8562 24.75 45.375V53.625C24.75 55.1438 25.9812 56.375 27.5 56.375H38.5C40.0188 56.375 41.25 55.1438 41.25 53.625V45.375C41.25 43.8562 40.0188 42.625 38.5 42.625H27.5ZM27.5 44.825H38.5C38.8037 44.825 39.05 45.0713 39.05 45.375V53.625C39.05 53.9287 38.8037 54.175 38.5 54.175H27.5C27.1963 54.175 26.95 53.9287 26.95 53.625V45.375C26.95 45.0713 27.1963 44.825 27.5 44.825Z" fill="#232326"/>
<path d="M16.7753 74.25C16.7753 77.895 19.7301 80.8499 23.3753 80.8499H86.6253C90.2704 80.8499 93.2253 77.895 93.2253 74.25V35.75C93.2253 32.1049 90.2704 29.15 86.6253 29.15H23.3753C19.7301 29.15 16.7753 32.1049 16.7753 35.75V74.25ZM18.9753 74.25V35.75C18.9753 33.3198 20.9452 31.3499 23.3753 31.3499H86.6253C89.0553 31.3499 91.0253 33.3198 91.0253 35.75V74.25C91.0253 76.6801 89.0553 78.65 86.6253 78.65H23.3753C20.9452 78.65 18.9753 76.6801 18.9753 74.25Z" fill="#A2051A"/>
<path d="M26.1253 65.7249H65.8324C66.44 65.7249 66.9324 65.2325 66.9324 64.625C66.9324 64.0174 66.44 63.525 65.8324 63.525H26.1253C25.5178 63.525 25.0253 64.0174 25.0253 64.625C25.0253 65.2325 25.5178 65.7249 26.1253 65.7249Z" fill="#A2051A"/>
</svg>
