<svg width="969" height="400" viewBox="0 0 969 400" fill="none" xmlns="http://www.w3.org/2000/svg">
<path d="M520.492 112.227L408.328 115.227L571.5 76.0663L500.415 207.322L520.492 112.227Z" fill="#1DCE90"/>
<path d="M51.2 221.048C41.984 221.048 33.92 219.384 27.008 216.056C20.096 212.643 14.72 207.949 10.88 201.976C7.12533 195.917 5.248 188.92 5.248 180.984C5.248 173.133 6.61333 165.923 9.344 159.352C12.16 152.781 16.0853 147.107 21.12 142.328C26.1547 137.549 32.128 133.88 39.04 131.32C45.952 128.675 53.5467 127.352 61.824 127.352C70.4427 127.352 78.08 128.888 84.736 131.96C91.392 135.032 96.3413 139.469 99.584 145.272L77.824 162.296C75.9467 158.968 73.5147 156.408 70.528 154.616C67.5413 152.739 64 151.8 59.904 151.8C56.32 151.8 53.0347 152.483 50.048 153.848C47.1467 155.128 44.6293 157.005 42.496 159.48C40.3627 161.869 38.6987 164.728 37.504 168.056C36.3093 171.384 35.712 175.053 35.712 179.064C35.712 182.563 36.48 185.635 38.016 188.28C39.552 190.925 41.6853 192.973 44.416 194.424C47.232 195.875 50.4747 196.6 54.144 196.6C57.6427 196.6 61.056 195.789 64.384 194.168C67.7973 192.547 71.04 189.901 74.112 186.232L91.904 203.256C86.4427 209.912 80.3413 214.563 73.6 217.208C66.944 219.768 59.4773 221.048 51.2 221.048ZM124.61 220.28C120.002 220.28 115.479 219.043 111.042 216.568C106.605 214.008 102.935 210.339 100.034 205.56C97.218 200.696 95.81 194.808 95.81 187.896C95.81 182.093 96.7913 176.76 98.754 171.896C100.717 167.032 103.405 162.808 106.818 159.224C110.317 155.555 114.285 152.739 118.722 150.776C123.245 148.728 128.023 147.704 133.058 147.704C138.519 147.704 143.255 148.813 147.266 151.032C151.277 153.251 154.135 157.005 155.842 162.296C157.634 167.501 157.805 174.712 156.354 183.928C155.159 191.437 153.111 197.923 150.21 203.384C147.394 208.845 143.853 213.027 139.586 215.928C135.319 218.829 130.327 220.28 124.61 220.28ZM135.49 197.496C138.05 197.496 140.269 196.856 142.146 195.576C144.023 194.211 145.474 192.333 146.498 189.944C147.607 187.555 148.162 184.739 148.162 181.496C148.162 178.253 147.223 175.608 145.346 173.56C143.554 171.512 141.037 170.488 137.794 170.488C135.319 170.488 133.101 171.171 131.138 172.536C129.261 173.816 127.767 175.651 126.658 178.04C125.634 180.429 125.122 183.245 125.122 186.488C125.122 189.731 126.018 192.376 127.81 194.424C129.687 196.472 132.247 197.496 135.49 197.496ZM142.274 219L144.194 209.528L148.93 183.928L152.642 158.584L154.562 148.984H183.49L169.538 219H142.274ZM232.667 220.28C227.291 220.28 222.555 219.171 218.459 216.952C214.448 214.733 211.547 210.979 209.755 205.688C208.048 200.397 207.92 193.187 209.371 184.056C210.651 176.461 212.699 169.976 215.515 164.6C218.331 159.139 221.872 154.957 226.139 152.056C230.491 149.155 235.483 147.704 241.115 147.704C245.808 147.704 250.331 148.984 254.683 151.544C259.12 154.019 262.747 157.645 265.563 162.424C268.464 167.203 269.915 173.091 269.915 180.088C269.915 185.805 268.934 191.139 266.971 196.088C265.008 200.952 262.278 205.219 258.779 208.888C255.366 212.472 251.398 215.288 246.875 217.336C242.438 219.299 237.702 220.28 232.667 220.28ZM177.243 243.832L196.187 148.984H223.451L221.531 158.456L216.795 184.056L213.083 209.4L206.171 243.832H177.243ZM227.931 197.496C230.491 197.496 232.71 196.856 234.587 195.576C236.464 194.211 237.915 192.333 238.939 189.944C240.048 187.555 240.603 184.739 240.603 181.496C240.603 178.253 239.664 175.608 237.787 173.56C235.995 171.512 233.478 170.488 230.235 170.488C227.76 170.488 225.542 171.171 223.579 172.536C221.702 173.816 220.208 175.651 219.099 178.04C218.075 180.429 217.563 183.245 217.563 186.488C217.563 189.731 218.459 192.376 220.251 194.424C222.128 196.472 224.688 197.496 227.931 197.496ZM271.86 219L285.812 148.984H314.612L300.66 219H271.86ZM303.348 143.352C298.313 143.352 294.303 142.029 291.316 139.384C288.415 136.739 286.964 133.496 286.964 129.656C286.964 125.133 288.628 121.379 291.956 118.392C295.369 115.405 299.849 113.912 305.396 113.912C310.431 113.912 314.399 115.149 317.3 117.624C320.287 120.099 321.78 123.256 321.78 127.096C321.78 131.875 320.073 135.8 316.66 138.872C313.332 141.859 308.895 143.352 303.348 143.352ZM347.021 220.28C341.048 220.28 335.97 219.171 331.789 216.952C327.608 214.733 324.664 211.491 322.957 207.224C321.25 202.872 320.994 197.667 322.189 191.608L333.837 133.24H362.765L351.117 191.48C350.69 193.869 350.946 195.619 351.885 196.728C352.824 197.837 354.274 198.392 356.237 198.392C357.432 198.392 358.498 198.264 359.437 198.008C360.461 197.667 361.528 197.24 362.637 196.728L365.965 216.184C363.32 217.635 360.333 218.659 357.005 219.256C353.762 219.939 350.434 220.28 347.021 220.28ZM316.045 173.944L320.269 152.824H373.133L368.909 173.944H316.045ZM402.485 220.28C397.877 220.28 393.354 219.043 388.917 216.568C384.48 214.008 380.81 210.339 377.909 205.56C375.093 200.696 373.685 194.808 373.685 187.896C373.685 182.093 374.666 176.76 376.629 171.896C378.592 167.032 381.28 162.808 384.693 159.224C388.192 155.555 392.16 152.739 396.597 150.776C401.12 148.728 405.898 147.704 410.933 147.704C416.394 147.704 421.13 148.813 425.141 151.032C429.152 153.251 432.01 157.005 433.717 162.296C435.509 167.501 435.68 174.712 434.229 183.928C433.034 191.437 430.986 197.923 428.085 203.384C425.269 208.845 421.728 213.027 417.461 215.928C413.194 218.829 408.202 220.28 402.485 220.28ZM413.365 197.496C415.925 197.496 418.144 196.856 420.021 195.576C421.898 194.211 423.349 192.333 424.373 189.944C425.482 187.555 426.037 184.739 426.037 181.496C426.037 178.253 425.098 175.608 423.221 173.56C421.429 171.512 418.912 170.488 415.669 170.488C413.194 170.488 410.976 171.171 409.013 172.536C407.136 173.816 405.642 175.651 404.533 178.04C403.509 180.429 402.997 183.245 402.997 186.488C402.997 189.731 403.893 192.376 405.685 194.424C407.562 196.472 410.122 197.496 413.365 197.496ZM420.149 219L422.069 209.528L426.805 183.928L430.517 158.584L432.437 148.984H461.365L447.413 219H420.149ZM460.11 219L479.054 124.024H507.982L489.038 219H460.11Z" fill="#032854"/>
<path d="M629.732 105.336C632.207 105.336 634.425 109.133 636.388 116.728C638.436 124.323 639.46 132.045 639.46 139.896C639.46 147.661 637.711 155.896 634.212 164.6C630.713 173.219 626.105 180.941 620.388 187.768C614.671 194.509 608.313 200.525 601.316 205.816C594.404 211.021 587.279 215.032 579.94 217.848C572.601 220.664 565.732 222.072 559.332 222.072C553.017 222.072 547.044 220.792 541.412 218.232C535.865 215.587 531.257 211.576 527.588 206.2C524.004 200.739 522.212 194.168 522.212 186.488C522.212 178.808 524.26 170.104 528.356 160.376C537.572 138.787 551.396 123.171 569.828 113.528C579.897 108.237 590.223 105.592 600.804 105.592C605.412 105.592 610.148 107.085 615.012 110.072C619.876 112.973 622.308 116.088 622.308 119.416C622.308 119.928 621.924 120.781 621.156 121.976C620.388 123.171 619.833 124.067 619.492 124.664C619.321 125.261 618.98 126.072 618.468 127.096C617.529 128.973 616.847 129.912 616.42 129.912C615.567 129.912 615.14 129.485 615.14 128.632C615.14 125.133 614.457 122.104 613.092 119.544C611.727 116.899 609.977 114.936 607.844 113.656C603.748 111.181 599.609 109.944 595.428 109.944C576.313 109.944 560.527 119.245 548.068 137.848C537.828 153.037 532.708 167.032 532.708 179.832C532.708 190.072 535.481 198.392 541.028 204.792C546.575 211.192 553.871 214.392 562.916 214.392C573.839 214.392 584.591 211.021 595.172 204.28C605.839 197.539 614.543 188.621 621.284 177.528C628.111 166.349 631.524 154.829 631.524 142.968C631.524 138.616 631.097 134.947 630.244 131.96C629.476 128.888 628.793 126.413 628.196 124.536C627.599 122.659 627.001 120.995 626.404 119.544C625.807 118.093 625.252 116.856 624.74 115.832C624.228 114.723 623.673 113.528 623.076 112.248C623.076 111.736 623.929 110.456 625.636 108.408C627.428 106.36 628.793 105.336 629.732 105.336ZM652.767 164.216C649.78 164.216 646.367 165.496 642.527 168.056C641.759 168.568 641.247 168.824 640.991 168.824C640.82 168.824 640.735 168.653 640.735 168.312C640.735 167.971 640.991 167.629 641.503 167.288C647.391 162.851 652.767 160.632 657.631 160.632C659.764 160.632 661.428 161.229 662.623 162.424C663.903 163.619 664.543 165.112 664.543 166.904C664.543 168.696 662.836 172.664 659.423 178.808C673.162 167.032 683.828 161.144 691.423 161.144C694.068 161.144 695.946 162.083 697.055 163.96C698.25 165.752 698.847 168.056 698.847 170.872C698.847 173.603 695.946 180.301 690.143 190.968C684.34 201.635 681.439 208.504 681.439 211.576C681.439 212.941 681.823 214.093 682.591 215.032C683.359 215.971 684.34 216.44 685.535 216.44C693.13 216.44 702.431 211.661 713.439 202.104C716.34 199.544 719.114 196.813 721.759 193.912C724.49 191.011 726.154 189.048 726.751 188.024C727.434 187 727.946 186.488 728.287 186.488C728.628 186.488 728.799 186.616 728.799 186.872C728.799 187.128 728.714 187.427 728.543 187.768C725.471 191.864 720.82 196.984 714.591 203.128C708.447 209.187 702.047 213.795 695.391 216.952C688.82 220.024 683.316 221.56 678.879 221.56C674.442 221.56 672.223 219.597 672.223 215.672C672.223 212.173 673.674 207.523 676.575 201.72C679.476 195.832 682.378 190.157 685.279 184.696C688.18 179.235 689.631 175.139 689.631 172.408C689.631 168.141 688.01 166.008 684.767 166.008C681.78 166.008 676.575 168.696 669.151 174.072C661.812 179.363 657.802 182.648 657.119 183.928L638.431 217.976C638.004 218.659 637.194 219.085 635.999 219.256C634.89 219.512 633.695 219.853 632.415 220.28C631.22 220.792 630.41 221.048 629.983 221.048C628.959 221.048 628.447 220.621 628.447 219.768C628.447 219.427 630.922 215.075 635.871 206.712C649.183 183.843 655.839 170.787 655.839 167.544C655.839 165.325 654.815 164.216 652.767 164.216ZM761.558 136.056C768.555 130.253 774.657 125.005 779.862 120.312C785.153 115.533 790.742 109.944 796.63 103.544C802.603 97.144 807.51 91.128 811.35 85.496C815.19 79.7787 818.39 73.592 820.95 66.936C823.51 60.1947 824.79 53.7093 824.79 47.48C824.79 46.0293 824.491 44.8347 823.894 43.896C823.297 42.872 822.486 42.36 821.462 42.36C817.622 42.36 811.905 47.864 804.31 58.872C796.715 69.7947 788.694 83.4053 780.246 99.704L761.558 136.056ZM746.966 150.136C738.347 156.365 732.459 160.717 729.302 163.192C724.523 166.947 721.963 168.824 721.622 168.824C721.281 168.824 721.11 168.653 721.11 168.312C721.11 167.971 721.366 167.629 721.878 167.288C732.289 159.779 741.249 152.952 748.758 146.808L771.03 104.568C771.969 102.776 773.846 99.064 776.662 93.432C779.563 87.7147 781.611 83.704 782.806 81.4C784.001 79.096 786.006 75.64 788.822 71.032C791.638 66.424 794.155 62.7973 796.374 60.152C802.347 52.8133 808.491 47.0533 814.806 42.872C820.694 38.4347 825.985 36.216 830.678 36.216C832.214 36.216 833.323 36.856 834.006 38.136C834.689 39.416 835.03 40.6533 835.03 41.848C835.03 56.0133 828.673 70.9893 815.958 86.776C811.691 92.0667 807.638 96.76 803.798 100.856C800.043 104.952 795.265 109.603 789.462 114.808C782.294 121.293 772.31 129.741 759.51 140.152L742.102 174.2C739.03 180.344 736.641 185.123 734.934 188.536C733.313 191.864 731.649 195.747 729.942 200.184C728.321 204.621 727.51 207.949 727.51 210.168C727.51 212.387 728.193 214.307 729.558 215.928C730.923 217.464 732.715 218.232 734.934 218.232C740.31 218.232 746.283 216.483 752.854 212.984C759.425 209.485 765.483 205.347 771.03 200.568C776.577 195.704 780.673 191.267 783.318 187.256C783.659 186.744 784.001 186.488 784.342 186.488C784.683 186.488 784.854 186.616 784.854 186.872C784.854 187.128 784.769 187.427 784.598 187.768C779.99 193.912 775.382 198.989 770.774 203C766.251 207.011 761.43 210.509 756.31 213.496C751.19 216.483 746.241 218.616 741.462 219.896C736.769 221.176 732.673 221.816 729.174 221.816C725.675 221.816 722.902 220.877 720.854 219C718.806 217.208 717.782 214.947 717.782 212.216C717.782 209.485 718.209 206.84 719.062 204.28C720.001 201.635 720.897 199.416 721.75 197.624C722.689 195.832 724.523 192.376 727.254 187.256L746.966 150.136ZM778.652 168.056C777.884 168.568 777.372 168.824 777.116 168.824C776.945 168.824 776.86 168.653 776.86 168.312C776.86 167.971 777.116 167.629 777.628 167.288C783.089 163.533 787.783 161.656 791.708 161.656C797.511 161.656 800.412 164.301 800.412 169.592C800.412 171.469 798.961 174.968 796.06 180.088C793.159 185.123 790.257 190.413 787.356 195.96C784.455 201.507 783.004 205.859 783.004 209.016C783.004 213.453 785.991 215.672 791.964 215.672C794.865 215.672 798.663 214.307 803.356 211.576C808.135 208.845 812.316 205.987 815.9 203C819.484 200.013 822.641 197.027 825.372 194.04C828.103 191.053 829.767 189.048 830.364 188.024C831.047 187 831.559 186.488 831.9 186.488C832.241 186.488 832.412 186.616 832.412 186.872C832.412 187.128 832.327 187.427 832.156 187.768C827.975 193.4 823.367 198.435 818.332 202.872C812.871 208.077 806.897 212.259 800.412 215.416C793.927 218.488 788.764 220.024 784.924 220.024C781.084 220.024 778.097 219.171 775.964 217.464C773.831 215.757 772.764 213.197 772.764 209.784C772.764 206.371 774.343 201.763 777.5 195.96C780.657 190.157 783.815 184.781 786.972 179.832C790.129 174.797 791.708 171.469 791.708 169.848C791.708 168.141 791.324 166.819 790.556 165.88C789.873 164.941 788.977 164.472 787.868 164.472C785.308 164.472 782.236 165.667 778.652 168.056ZM807.324 133.752C807.324 131.875 808.177 129.912 809.884 127.864C811.42 125.816 812.956 124.792 814.492 124.792C816.028 124.792 817.18 125.261 817.948 126.2C818.716 127.053 819.1 128.291 819.1 129.912C819.1 131.533 818.332 133.368 816.796 135.416C815.26 137.379 813.468 138.36 811.42 138.36C808.689 138.36 807.324 136.824 807.324 133.752ZM836.767 164.216C833.78 164.216 830.367 165.496 826.527 168.056C825.759 168.568 825.247 168.824 824.991 168.824C824.82 168.824 824.735 168.653 824.735 168.312C824.735 167.971 824.991 167.629 825.503 167.288C831.391 162.851 836.767 160.632 841.631 160.632C843.764 160.632 845.428 161.229 846.623 162.424C847.903 163.619 848.543 165.112 848.543 166.904C848.543 168.696 846.836 172.664 843.423 178.808C857.162 167.032 867.828 161.144 875.423 161.144C878.068 161.144 879.946 162.083 881.055 163.96C882.25 165.752 882.847 168.056 882.847 170.872C882.847 173.603 879.946 180.301 874.143 190.968C868.34 201.635 865.439 208.504 865.439 211.576C865.439 212.941 865.823 214.093 866.591 215.032C867.359 215.971 868.34 216.44 869.535 216.44C877.13 216.44 886.431 211.661 897.439 202.104C900.34 199.544 903.114 196.813 905.759 193.912C908.49 191.011 910.154 189.048 910.751 188.024C911.434 187 911.946 186.488 912.287 186.488C912.628 186.488 912.799 186.616 912.799 186.872C912.799 187.128 912.714 187.427 912.543 187.768C909.471 191.864 904.82 196.984 898.591 203.128C892.447 209.187 886.047 213.795 879.391 216.952C872.82 220.024 867.316 221.56 862.879 221.56C858.442 221.56 856.223 219.597 856.223 215.672C856.223 212.173 857.674 207.523 860.575 201.72C863.476 195.832 866.378 190.157 869.279 184.696C872.18 179.235 873.631 175.139 873.631 172.408C873.631 168.141 872.01 166.008 868.767 166.008C865.78 166.008 860.575 168.696 853.151 174.072C845.812 179.363 841.802 182.648 841.119 183.928L822.431 217.976C822.004 218.659 821.194 219.085 819.999 219.256C818.89 219.512 817.695 219.853 816.415 220.28C815.22 220.792 814.41 221.048 813.983 221.048C812.959 221.048 812.447 220.621 812.447 219.768C812.447 219.427 814.922 215.075 819.871 206.712C833.183 183.843 839.839 170.787 839.839 167.544C839.839 165.325 838.815 164.216 836.767 164.216ZM898.454 202.616L893.334 206.712C893.163 206.712 893.078 206.541 893.078 206.2C893.078 205.859 893.377 205.389 893.974 204.792C894.571 204.195 896.235 202.872 898.966 200.824C900.929 194.68 903.873 188.877 907.798 183.416C911.723 177.955 915.734 173.56 919.83 170.232C923.926 166.819 927.809 164.173 931.478 162.296C935.147 160.333 938.049 159.352 940.182 159.352C944.619 159.352 946.838 161.059 946.838 164.472C946.838 165.752 946.369 167.075 945.43 168.44C944.491 169.72 942.742 171.341 940.182 173.304C937.707 175.267 935.318 177.059 933.014 178.68C930.795 180.216 927.211 182.648 922.262 185.976C917.398 189.304 913.217 192.205 909.718 194.68C908.182 199.032 907.414 203.085 907.414 206.84C907.414 210.509 908.395 213.24 910.358 215.032C912.406 216.824 915.777 217.72 920.47 217.72C925.249 217.72 930.71 216.056 936.854 212.728C943.083 209.4 948.971 205.347 954.518 200.568C960.065 195.704 964.161 191.267 966.806 187.256C967.147 186.744 967.489 186.488 967.83 186.488C968.171 186.488 968.342 186.616 968.342 186.872C968.342 187.128 968.257 187.427 968.086 187.768C958.614 200.056 947.179 209.613 933.782 216.44C927.297 219.512 920.982 221.048 914.838 221.048C903.233 221.048 897.43 217.037 897.43 209.016C897.43 207.821 897.771 205.688 898.454 202.616ZM910.742 192.376C920.811 185.123 927.979 179.533 932.246 175.608C936.513 171.597 938.646 168.483 938.646 166.264C938.646 164.045 937.707 162.936 935.83 162.936C931.649 162.936 927.169 165.965 922.39 172.024C917.611 177.997 913.729 184.781 910.742 192.376Z" fill="#1E1E1E"/>
</svg>
