<svg width="758" height="254" viewBox="0 0 758 254" fill="none" xmlns="http://www.w3.org/2000/svg">
<path d="M152.818 32.501H179.417L216.085 139.038H190.838L182.573 115.18H149.362L141.247 139.038H116L152.818 32.501ZM178.516 98.224L166.042 57.2597L153.269 98.224H178.516Z" fill="white"/>
<path d="M253.094 139.338C247.885 139.338 243.126 138.338 238.818 136.337C234.51 134.237 230.803 131.386 227.697 127.784C224.692 124.083 222.337 119.832 220.634 115.03C218.931 110.228 218.08 105.076 218.08 99.5745C218.08 93.7725 218.981 88.4206 220.785 83.5189C222.588 78.6172 225.093 74.3157 228.299 70.6144C231.605 66.8131 235.462 63.912 239.87 61.9113C244.378 59.8106 249.337 58.7602 254.747 58.7602C260.658 58.7602 265.868 60.0607 270.376 62.6616C274.885 65.1625 278.491 68.6637 281.196 73.1653V60.2608H302.085V133.636C302.085 141.639 300.131 148.542 296.224 154.344C292.417 160.146 287.057 164.597 280.144 167.698C273.332 170.899 265.417 172.5 256.4 172.5C247.985 172.5 240.721 171.1 234.61 168.299C228.599 165.598 223.339 161.746 218.831 156.745L231.755 143.69C234.66 146.991 238.267 149.592 242.575 151.493C246.883 153.493 251.491 154.494 256.4 154.494C260.308 154.494 263.914 153.793 267.22 152.393C270.527 150.992 273.131 148.742 275.035 145.641C277.039 142.54 278.04 138.538 278.04 133.636V125.984C275.636 130.285 272.129 133.586 267.521 135.887C263.013 138.188 258.204 139.338 253.094 139.338ZM261.36 120.282C263.263 120.282 265.016 120.032 266.619 119.531C268.322 118.931 269.875 118.181 271.278 117.281C272.681 116.28 273.983 115.13 275.185 113.829C276.387 112.429 277.339 110.928 278.04 109.328V92.8221C277.039 90.0212 275.586 87.6203 273.682 85.6196C271.779 83.5189 269.675 81.9183 267.371 80.8179C265.066 79.7176 262.662 79.1674 260.157 79.1674C257.653 79.1674 255.298 79.7176 253.094 80.8179C250.89 81.9183 248.987 83.5189 247.384 85.6196C245.881 87.6203 244.679 89.8711 243.777 92.372C242.976 94.8729 242.575 97.4738 242.575 100.175C242.575 103.076 243.026 105.727 243.927 108.127C244.929 110.528 246.282 112.679 247.985 114.58C249.688 116.38 251.692 117.781 253.996 118.781C256.3 119.782 258.755 120.282 261.36 120.282Z" fill="white"/>
<path d="M368.605 80.8179C362.794 80.8179 357.535 81.7683 352.826 83.6689C348.117 85.4696 344.711 88.1705 342.607 91.7718V139.038H318.563V60.2608H340.653V76.1663C343.358 70.8645 346.865 66.713 351.173 63.712C355.481 60.7109 359.989 59.1604 364.698 59.0603C365.8 59.0603 366.601 59.0603 367.102 59.0603C367.703 59.0603 368.204 59.1104 368.605 59.2104V80.8179Z" fill="white"/>
<path d="M378.732 139.038V37H402.777V139.038H378.732ZM378.732 24L390.755 12.5L402.777 0V24H378.732Z" fill="#006120"/>
<path d="M439.675 139.038L411.723 60.2608H436.519L453.801 117.431L471.083 60.2608H493.624L465.823 139.038H439.675Z" fill="white"/>
<path d="M537.819 140.539C531.106 140.539 525.145 139.488 519.936 137.388C514.726 135.187 510.268 132.236 506.561 128.535C502.954 124.833 500.199 120.582 498.296 115.78C496.392 110.878 495.441 105.777 495.441 100.475C495.441 92.8722 497.094 85.9697 500.4 79.7676C503.806 73.4654 508.665 68.4136 514.977 64.6123C521.288 60.7109 528.902 58.7602 537.819 58.7602C546.735 58.7602 554.299 60.6609 560.511 64.4622C566.822 68.2636 571.631 73.2653 574.937 79.4675C578.244 85.5696 579.897 92.2219 579.897 99.4245C579.897 100.825 579.796 102.225 579.596 103.626C579.496 104.926 579.396 106.077 579.295 107.077H520.988C521.288 110.578 522.24 113.529 523.843 115.93C525.546 118.331 527.7 120.182 530.305 121.482C532.91 122.683 535.665 123.283 538.57 123.283C542.177 123.283 545.533 122.432 548.639 120.732C551.845 119.031 554.049 116.731 555.251 113.829L575.689 119.531C573.685 123.633 570.83 127.284 567.123 130.485C563.516 133.586 559.208 136.037 554.199 137.838C549.29 139.639 543.83 140.539 537.819 140.539ZM520.387 92.372H554.65C554.249 89.0708 553.297 86.2198 551.795 83.819C550.292 81.3181 548.288 79.4175 545.784 78.117C543.279 76.7165 540.524 76.0163 537.518 76.0163C534.413 76.0163 531.607 76.7165 529.103 78.117C526.698 79.4175 524.745 81.3181 523.242 83.819C521.739 86.2198 520.787 89.0708 520.387 92.372Z" fill="white"/>
<path d="M621 140.539C614.287 140.539 607.725 139.438 601.314 137.238C594.902 135.037 589.492 131.786 585.084 127.484L593.349 112.329C598.158 115.83 602.816 118.481 607.325 120.282C611.933 122.082 616.241 122.983 620.248 122.983C623.354 122.983 625.759 122.483 627.462 121.482C629.165 120.482 630.017 118.931 630.017 116.831C630.017 115.33 629.516 114.18 628.514 113.379C627.512 112.479 625.959 111.679 623.855 110.978C621.851 110.278 619.347 109.528 616.341 108.728C610.33 106.727 605.321 104.776 601.314 102.876C597.306 100.975 594.301 98.6742 592.297 95.9732C590.293 93.1723 589.291 89.571 589.291 85.1695C589.291 79.8676 590.594 75.266 593.199 71.3646C595.904 67.3632 599.711 64.2622 604.62 62.0614C609.529 59.8606 615.39 58.7602 622.202 58.7602C627.612 58.7602 632.872 59.6105 637.981 61.3111C643.191 63.0117 648.05 65.8627 652.558 69.8641L643.241 84.8694C638.733 81.7683 634.725 79.5175 631.219 78.117C627.712 76.7165 624.306 76.0163 621 76.0163C619.297 76.0163 617.744 76.2163 616.341 76.6165C614.939 77.0166 613.787 77.7169 612.885 78.7172C612.083 79.6175 611.683 80.8179 611.683 82.3185C611.683 83.819 612.083 85.0194 612.885 85.9197C613.787 86.82 615.139 87.6203 616.942 88.3206C618.846 88.9208 621.2 89.671 624.005 90.5714C630.517 92.472 635.927 94.4227 640.235 96.4234C644.543 98.3241 647.749 100.725 649.853 103.626C652.057 106.427 653.159 110.178 653.159 114.88C653.159 122.883 650.254 129.185 644.443 133.786C638.733 138.288 630.918 140.539 621 140.539Z" fill="white"/>
<path d="M716 134.837C713.796 135.737 711.341 136.637 708.636 137.538C706.032 138.438 703.277 139.138 700.371 139.639C697.466 140.239 694.61 140.539 691.805 140.539C687.798 140.539 684.091 139.889 680.685 138.588C677.379 137.188 674.724 134.937 672.72 131.836C670.817 128.735 669.865 124.633 669.865 119.531V78.4171H659.796V60.2608H669.865V35.202H693.909V60.2608H709.989V78.4171H693.909V111.279C693.909 113.88 694.56 115.78 695.863 116.981C697.165 118.081 698.818 118.631 700.822 118.631C702.525 118.631 704.328 118.331 706.232 117.731C708.236 117.131 709.939 116.48 711.341 115.78L716 134.837Z" fill="white"/>
<path d="M755.834 252.297C375.833 162.03 219.999 184.973 22.9807 238.16L17.132 210.318C302.783 133.536 642.402 205.633 755.834 252.297Z" fill="#FFB224"/>
<path d="M42.944 97.06V142.5H34.176V123.108H13.568V142.5H4.736V97.06H13.568V115.428H34.176V97.06H42.944ZM103.688 142.5H95.1115V123.684C95.1115 121.039 94.6422 119.097 93.7035 117.86C92.8075 116.58 91.5488 115.94 89.9275 115.94C88.2635 115.94 86.6635 116.601 85.1275 117.924C83.6342 119.204 82.5675 120.889 81.9275 122.98V142.5H73.3515V123.684C73.3515 120.996 72.8822 119.033 71.9435 117.796C71.0475 116.559 69.7888 115.94 68.1675 115.94C66.5035 115.94 64.9035 116.58 63.3675 117.86C61.8742 119.14 60.8075 120.825 60.1675 122.916V142.5H51.5915V108.964H59.3355V115.172C60.6155 112.996 62.3222 111.332 64.4555 110.18C66.5888 108.985 69.0422 108.388 71.8155 108.388C74.5888 108.388 76.7435 109.071 78.2795 110.436C79.8582 111.801 80.8608 113.487 81.2875 115.492C82.6528 113.188 84.3808 111.439 86.4715 110.244C88.6048 109.007 90.9942 108.388 93.6395 108.388C95.7302 108.388 97.4155 108.772 98.6955 109.54C100.018 110.265 101.042 111.268 101.768 112.548C102.493 113.785 102.984 115.193 103.24 116.772C103.538 118.351 103.688 119.951 103.688 121.572V142.5Z" fill="#006120"/>
</svg>
